{"title":"The Rolling Stones Live at Glastonbury (2013) [HDTV 1080i]","uid":8663596,"size":5375332096,"categoryP":"video","categoryS":"hd___movies","magnet":"?xt=urn:btih:65dd221ed6624aec89828099fdadf2f989149108&amp;dn=The+Rolling+Stones+Live+at+Glastonbury+%282013%29+%5BHDTV+1080i%5D&amp;tr=udp%3A%2F%2Ftracker.openbittorrent.com%3A80&amp;tr=udp%3A%2F%2Fopen.demonii.com%3A1337&amp;tr=udp%3A%2F%2Ftracker.coppersurfer.tk%3A6969&amp;tr=udp%3A%2F%2Fexodus.desync.com%3A6969","seeders":8,"leechers":2,"uploader":"gatasalvaje","files":-1,"time":1373361771,"description":"The Rolling Stones Live at Glastonbury (2013) [HDTV 1080i]\n &lt;a href=&quot;\nhttp://www.pastemagazine.com/articles/2013/03/glastonbury-reveals-2013-lineup-the-rolling-stones.html&quot; rel=&quot;nofollow&quot; target=&quot;_NEW&quot;&gt;\nhttp://www.pastemagazine.com/articles/2013/03/glastonbury-reveals-2013-lineup-the-rolling-stones.html&lt;/a&gt; &lt;a href=&quot;\nhttp://www.virtualfestivals.com/glastonbury-festival-2013&quot; rel=&quot;nofollow&quot; target=&quot;_NEW&quot;&gt;\nhttp://www.virtualfestivals.com/glastonbury-festival-2013&lt;/a&gt;\n\nTracklist:\n01. Miss You\n02. Midnight Rambler (with Mick Taylor)\n03. 2000 Light Years From Home\n04. Sympathy For The Devil\n05. Start Me Up\n06. Tumbling Dice\n07. Brown Sugar\n\nEncore:\n08. You Can't Always Get What You Want\n09. (I Can't Get No) Satisfaction (with Mick Taylor)\n\nInfo:\n******\nGeneral\nID : 1 (0x1)\nComplete name : E:DownloadsThe Rolling Stones - Live at Glastonbury 2013.ts\nFormat : MPEG-TS\nFile size : 5.01 GiB\nDuration : 1h 7mn\nOverall bit rate mode : Variable\nOverall bit rate : 10.5 Mbps\nMaximum Overall bit rate : 35.5 Mbps\n\nVideo\nID : 4113 (0x1011)\nMenu ID : 1 (0x1)\nFormat : AVC\nFormat/Info : Advanced Video Codec\nFormat profile : &lt;a class=&quot;__cf_email__&quot; href=&quot;/cdn-cgi/l/email-protection&quot; data-cfemail=&quot;97dffef0ffd7dba3b9a7&quot;&gt;[email&amp;#160;protected]&lt;/a&gt;&lt;script cf-hash='f9e31' type=&quot;text/javascript&quot;&gt;\n/* &lt;![CDATA[ */!function(){try{var t=&quot;currentScript&quot;in document?document.currentScript:function(){for(var t=document.getElementsByTagName(&quot;script&quot;),e=t.length;e--;)if(t[e].getAttribute(&quot;cf-hash&quot;))return t[e]}();if(t&amp;&amp;t.previousSibling){var e,r,n,i,c=t.previousSibling,a=c.getAttribute(&quot;data-cfemail&quot;);if(a){for(e=&quot;&quot;,r=parseInt(a.substr(0,2),16),n=2;a.length-n;n+=2)i=parseInt(a.substr(n,2),16)^r,e+=String.fromCharCode(i);e=document.createTextNode(e),c.parentNode.replaceChild(e,c)}}}catch(u){}}();/* ]]&gt; */&lt;/script&gt;\nFormat settings, CABAC : Yes\nFormat settings, ReFrames : 4 frames\nCodec ID : 27\nDuration : 1h 7mn\nBit rate mode : Variable\nBit rate : 9 828 Kbps\nMaximum bit rate : 40.0 Mbps\nWidth : 1 920 pixels\nHeight : 1 080 pixels\nDisplay aspect ratio : 16:9\nFrame rate : 25.000 fps\nColor space : YUV\nChroma subsampling : 4:2:0\nBit depth : 8 bits\nScan type : MBAFF\nBits/(Pixel*Frame) : 0.190\nStream size : 4.67 GiB (93%)\nColor primaries : BT.709\nTransfer characteristics : BT.709\nMatrix coefficients : BT.709\n\nAudio\nID : 4352 (0x1100)\nMenu ID : 1 (0x1)\nFormat : AC-3\nFormat/Info : Audio Coding 3\nMode extension : CM (complete main)\nFormat settings, Endianness : Big\nCodec ID : 129\nDuration : 1h 7mn\nBit rate mode : Constant\nBit rate : 192 Kbps\nChannel(s) : 2 channels\nChannel positions : Front: L R\nSampling rate : 48.0 KHz\nBit depth : 16 bits\nCompression mode : Lossy\nDelay relative to video : -170ms\nStream size : 93.4 MiB (2%)\nLanguage : English","torrent":{"xt":"urn:btih:65dd221ed6624aec89828099fdadf2f989149108","amp;dn":"The+Rolling+Stones+Live+at+Glastonbury+%282013%29+%5BHDTV+1080i%5D","amp;tr":["udp%3A%2F%2Ftracker.openbittorrent.com%3A80","udp%3A%2F%2Fopen.demonii.com%3A1337","udp%3A%2F%2Ftracker.coppersurfer.tk%3A6969","udp%3A%2F%2Fexodus.desync.com%3A6969"],"infoHash":"65dd221ed6624aec89828099fdadf2f989149108","infoHashBuffer":{"type":"Buffer","data":[101,221,34,30,214,98,74,236,137,130,128,153,253,173,242,249,137,20,145,8]},"announce":[],"urlList":[]}}